<svg width="24" height="28" viewBox="0 0 24 28" fill="none" xmlns="http://www.w3.org/2000/svg">
<ellipse opacity="0.2" cx="12.2543" cy="18.8899" rx="8.92227" ry="8.97588" fill="#A77B4F"/>
<path d="M12.1057 24.575C16.5805 24.575 20.1978 20.9273 20.1978 16.4403C20.1978 11.9533 16.5805 8.30566 12.1057 8.30566C7.63097 8.30566 4.01367 11.9533 4.01367 16.4403C4.01367 20.9273 7.63097 24.575 12.1057 24.575Z" fill="#967351" stroke="#5F3D2F" stroke-width="2"/>
<g filter="url(#filter0_i)">
<ellipse cx="12.1064" cy="11.4362" rx="9.37983" ry="9.43618" fill="#CA9764"/>
</g>
<path d="M12.1064 21.8724C17.8446 21.8724 22.4862 17.1943 22.4862 11.4362C22.4862 5.67809 17.8446 1 12.1064 1C6.36813 1 1.72656 5.67809 1.72656 11.4362C1.72656 17.1943 6.36813 21.8724 12.1064 21.8724Z" stroke="#5F3D2F" stroke-width="2"/>
<ellipse cx="12.7121" cy="9.00085" rx="5.14378" ry="5.17468" fill="#DEAA75"/>
<defs>
<filter id="filter0_i" x="0.726562" y="0" width="22.7597" height="22.8724" filterUnits="userSpaceOnUse" color-interpolation-filters="sRGB">
<feFlood flood-opacity="0" result="BackgroundImageFix"/>
<feBlend mode="normal" in="SourceGraphic" in2="BackgroundImageFix" result="shape"/>
<feColorMatrix in="SourceAlpha" type="matrix" values="0 0 0 0 0 0 0 0 0 0 0 0 0 0 0 0 0 0 127 0" result="hardAlpha"/>
<feOffset dy="-4"/>
<feComposite in2="hardAlpha" operator="arithmetic" k2="-1" k3="1"/>
<feColorMatrix type="matrix" values="0 0 0 0 0.620833 0 0 0 0 0.439291 0 0 0 0 0.30783 0 0 0 0.3 0"/>
<feBlend mode="normal" in2="shape" result="effect1_innerShadow"/>
</filter>
</defs>
</svg>
