<svg width="219" height="101" viewBox="0 0 219 101" fill="none" xmlns="http://www.w3.org/2000/svg">
<g filter="url(#filter0_d)">
<path d="M0 98H219V96.3742L211.347 95.8177L219 95.4076V91.4676L216.406 90.8964L214.46 89.0656L219 85.3307V77.1433L199.759 76.6893L219 75.9423V74.258L211.087 74.0529L219 73.6867V51.6876H211.087L219 50.7942V47.5866L211.087 46.8689L219 46.4149V25.7633L206.029 24.2547H219V19.8607L204.299 19.2748H219V10.4283L215.109 8.83186L219 8.0263V4.0278L199.759 2.92931L219 2.00658V0H0V1.699L8.95025 2.34345L0 2.82678V6.42983L3.89141 7.27933L5.83712 9.11015L0 13.8849V21.0031L20.538 21.4865L0 22.2774V23.8739L9.16644 24.1229L0 24.533V46.4881H9.16644L0 47.528V50.472L9.16644 51.3068L0 51.8341V72.266L14.2685 73.9211H0V78.2565L15.998 78.9009H0V87.2348L5.18855 89.3293L0 90.4131V94.0747L20.538 95.2318L0 96.2278V98Z" fill="#FFF1DF"/>
</g>
<g clip-path="url(#clip0)">
<path opacity="0.1" d="M203.52 38.1663C200.364 38.7961 199.499 38.5617 199.499 38.5617L172.994 40.29H192.321L200.407 39.8653C200.407 39.8653 203.304 39.9824 208.752 39.8653C214.243 39.7481 212.211 42.0769 212.211 42.0769L211.346 47.9941L211.13 49.8688L219.042 49.4148V28.7632C219.042 28.7632 209.919 29.349 203.001 29.9349C196.083 30.5208 203.001 29.9349 207.628 30.3157C212.254 30.6965 211.951 31.8975 211.951 32.1905C211.951 32.4834 213.378 35.1198 213.378 35.4274C213.335 35.7056 206.72 37.5365 203.52 38.1663Z" fill="#C6541E"/>
<path opacity="0.1" d="M219.001 22.8608L204.473 22.2749C205.77 22.6411 207.37 23.1244 207.845 23.5784C208.667 24.3547 207.543 24.0618 207.543 24.0618C207.543 24.0618 206.678 24.9406 206.375 25.2335C206.072 25.5264 205.813 26.1123 206.375 26.6689C206.505 26.8153 207.413 27.0204 208.667 27.2401H218.957V22.8608H219.001Z" fill="#C6541E"/>
<path opacity="0.1" d="M219 78.9424V77.258L211.088 77.0383C210.958 77.756 210.136 78.6934 209.574 79.2939L219 78.9424Z" fill="#C6541E"/>
<path opacity="0.1" d="M219 80.1433L208.926 79.9089C208.926 79.9089 208.407 80.6999 207.542 81.0953C206.677 81.4908 205.813 81.2857 205.813 81.2857C205.813 81.2857 199.759 81.769 198.03 82.062C196.3 82.3549 200.927 82.3549 203.78 82.6478C206.677 82.9408 206.677 82.8382 212.125 83.1312C217.573 83.4241 212.99 83.717 212.125 84.3029C211.261 84.8888 208.104 85.1817 208.104 85.1817L210.698 86.0605C210.698 86.0605 208.969 87.7155 208.407 88.111C207.845 88.5065 204.948 89.1802 204.948 89.1802L201.791 90.8206H197.468C197.468 90.8206 181.037 92.1974 180.172 92.1388C179.308 92.0802 160.586 92.5928 160.456 92.5489C160.326 92.505 128.417 94.1161 128.417 94.1161L87.2109 95.0388C87.2109 95.0388 98.8852 95.5222 104.074 95.4782C109.262 95.4343 128.417 95.0388 128.417 95.0388C128.417 95.0388 142.123 94.2625 149.084 94.1161C156.046 93.9843 164.304 93.662 169.19 93.457C174.076 93.2519 196.56 92.6954 199.154 92.5489C201.748 92.4024 206.634 93.457 206.634 93.457L208.364 95.0388C208.364 95.0388 208.364 95.9176 208.061 96.4595C207.758 97.0014 205.164 98.0414 205.164 98.0414H203.737C203.737 98.0414 198.851 98.056 196.819 98.0414C194.787 98.0267 194.787 98.1585 188.474 98.0414C182.118 97.9242 181.556 98.6419 178.4 98.9348C175.243 99.2277 160.413 99.3595 160.413 99.3595H163.396C163.396 99.3595 180.129 99.4328 183.588 99.3595C187.047 99.2863 188.474 99.4328 189.944 99.3595C191.371 99.2863 199.457 100.194 199.457 100.194C199.457 100.194 204.083 100.59 204.948 100.59C205.25 100.59 205.985 100.751 206.807 100.971H219V99.3595L211.347 98.803L219 98.3929V94.4383L216.363 93.8671L214.417 92.0363L219 88.3014V80.1433Z" fill="#C6541E"/>
<path opacity="0.1" d="M116.829 70.9893C116.181 70.9453 115.748 70.9307 115.619 70.9307C115.359 70.9307 115.835 70.96 116.829 70.9893Z" fill="#C6541E"/>
<path opacity="0.1" d="M205.553 51.9926C203.52 52.3881 188.257 51.9926 188.257 51.9926C188.257 51.9926 201.791 52.3735 202.958 52.5346C204.126 52.681 212.773 52.5346 212.773 52.5346C212.773 52.5346 210.741 53.3548 210.179 53.8235C209.617 54.2922 207.585 55.0098 207.585 55.0098C207.585 55.0098 207.585 55.0098 213.076 56.2841C218.567 57.5583 212.773 56.9725 212.773 57.7487C212.773 58.525 213.638 59.5063 212.471 60.0922C211.303 60.678 211.606 61.3664 211.909 62.1427C212.211 62.919 211.044 63.0215 208.752 63.9003C206.461 64.7791 211.044 65.072 211.649 65.2771C212.211 65.4821 210.482 66.0533 209.92 66.5367C209.358 67.02 209.617 68.1917 208.752 68.7776C207.887 69.3635 207.585 69.6564 207.585 69.6564C207.585 69.6564 207.585 69.6564 210.741 70.3448C213.897 71.0332 209.574 70.6377 209.574 70.6377C209.574 70.6377 202.656 71.121 202.094 71.5165C201.531 71.9119 200.061 72.2781 200.061 72.2781C200.061 72.2781 192.279 73.069 190.852 73.2741C189.425 73.4645 184.798 73.3766 180.172 73.3766C175.545 73.3766 173.816 73.3766 170.66 73.3766C167.503 73.3766 163.742 73.1862 160.455 73.0837C157.169 72.9811 153.537 72.2928 153.537 72.2928C153.537 72.2928 123.401 71.2675 116.785 71.0039C123.574 71.414 155.267 73.8014 157.256 74.065C159.418 74.3579 173.254 74.5483 176.151 74.5483C179.048 74.5483 193.749 74.4458 196.04 74.3579C198.332 74.2554 206.979 73.6695 206.979 73.6695C206.979 73.6695 209.574 73.9625 210.136 74.2554C210.698 74.5483 211.303 75.9105 211.044 77.0529L218.956 76.7014V54.6876H211.044L218.956 53.7942V50.5866L211.044 49.8689L210.395 51.5093C210.438 51.5093 207.585 51.5972 205.553 51.9926Z" fill="#C6541E"/>
<path opacity="0.1" d="M197.77 8.19941C197.77 9.03427 200.365 9.22467 200.365 9.22467C200.365 9.22467 203.824 11.0848 203.824 11.7585C203.824 12.4469 203.262 12.7398 202.656 13.1207C202.051 13.5015 176.411 14.2924 174.984 14.2924C173.557 14.2924 181.037 14.4828 186.529 14.2924C192.02 14.102 186.529 14.2924 198.635 14.5853C199.327 14.6 199.976 14.6146 200.538 14.6439C209.964 14.9661 204.17 15.5666 205.251 15.5666C206.418 15.5666 208.148 15.5666 211.866 15.9621C215.628 16.3575 219 16.7383 219 16.7383V13.4282L215.066 11.8464L219 11.0262V7.02769L199.759 5.9292C198.678 5.98779 197.77 7.36456 197.77 8.19941Z" fill="#C6541E"/>
<path opacity="0.1" d="M0 3V4.699L8.95025 5.34345L0 5.82678V9.42983L3.89141 10.2793L5.83712 12.1101L0 16.8849V24.0031L20.538 24.4865L0 25.2774V26.8739L9.16644 27.1228L0 27.533V49.4735H9.16644L0 50.528V53.472L9.16644 54.3068L0 54.8341V75.2807L10.0744 76.4524C10.1609 76.0716 10.4203 75.6322 10.4203 75.4418C10.4203 75.1488 8.38815 73.2009 8.38815 73.2009C8.38815 73.2009 6.9613 72.3221 6.9613 72.3074C6.9613 72.2928 5.79388 71.2529 5.3615 70.7549C4.88588 70.2716 7.56663 69.9786 7.56663 69.9786C7.56663 69.9786 6.70188 68.7044 6.70188 68.0306C6.70188 67.3569 6.70188 67.1518 5.83712 66.8589C4.97236 66.566 5.53445 65.7897 5.83712 65.3064C6.13978 64.823 12.4525 64.618 13.0578 64.3251C13.6199 64.0321 12.1931 63.4463 12.1931 63.0508C12.1931 62.6554 15.09 61.3957 15.6521 60.8978C16.2142 60.4144 17.9437 59.726 17.9437 59.726C17.9437 59.726 24.5591 59.8286 28.6235 59.726C32.6879 59.6235 32.0825 59.6235 36.4063 59.0377C40.7301 58.4518 43.627 58.7447 45.616 58.5543C47.6482 58.3639 50.2424 58.5543 50.2424 58.5543L75.234 59.0377C75.234 59.0377 68.6618 58.4518 66.9755 58.1589C65.2892 57.8659 45.9187 57.573 41.2922 57.573C36.6657 57.573 30.6124 58.1589 29.7477 58.1589C28.8829 58.1589 11.8904 57.573 10.723 57.1775C9.55558 56.7821 13.0146 56.2988 13.0146 56.2988C13.0146 56.2988 10.9824 55.42 10.9824 55.127C10.9824 54.8341 14.1388 53.1205 14.1388 53.1205C14.1388 53.1205 10.6798 52.8715 9.81501 53.0912C8.95025 53.3109 11.2419 48.58 11.2419 48.58V47.9942C11.2419 47.9942 9.815 47.8038 8.34492 47.5108C6.87483 47.2179 6.91807 46.1487 12.1066 44.977C17.2952 43.8053 14.3982 44.3032 14.3982 44.3032C14.3982 44.3032 14.9603 42.8386 15.8251 42.5457C16.6898 42.2527 21.3163 42.5457 23.0458 42.5457C24.7753 42.5457 39.1735 42.5457 41.2057 42.0916C43.2379 41.6376 40.0383 42.0916 40.0383 42.0916C40.0383 42.0916 28.4938 41.6669 22.7431 41.4032C16.9925 41.1396 16.9925 40.3194 16.9925 40.3194L12.9714 39.8946L10.3771 34.9441C10.3771 34.9441 10.9392 34.1678 10.9392 33.5673C10.9392 32.9668 10.0744 33.084 9.77177 32.4981C9.4691 31.9123 10.3339 31.8097 12.0634 31.3557C13.7929 30.887 15.8251 30.1547 15.8251 29.7739C15.8251 29.3784 15.5224 29.0855 15.5224 29.0855C15.5224 29.0855 17.5546 27.6208 18.9814 26.8006C20.4083 25.9804 22.7431 26.742 24.4727 26.7127C26.2022 26.6835 38.8709 26.9324 45.7889 26.7127C52.707 26.493 63.0841 26.2587 68.2727 25.9658C73.4612 25.6728 78.0877 24.6915 79.2118 24.5011C80.3793 24.3107 95.0802 23.2269 99.6634 22.8461C104.29 22.4506 109.392 21.7476 109.392 21.7476L115.229 21.0152C115.229 21.0152 156.737 20.3122 153.581 20.3122C150.425 20.3122 128.806 20.2097 125.044 20.2097C121.282 20.2097 101.696 20.986 97.6744 21.0152C93.6533 21.0445 65.981 23.8274 64.2515 23.8274C62.522 23.8274 36.5793 25.4824 36.5793 25.4824L14.9603 22.7582L15.8251 22.1577H20.4515L29.6612 21.7622H19.2841L8.34492 21.0299L10.3771 18.3349V16.6506L13.274 14.9955H11.6742L17.5978 11.8758C17.5978 11.8758 32.2987 10.6016 34.893 10.6016C37.4873 10.6016 54.2203 10.6016 56.2093 10.6016C58.1982 10.6016 64.5542 10.792 64.5542 10.792L129.411 11.8612C129.411 11.8612 73.2018 10.294 69.1806 10.1036C65.1595 9.91317 62.8247 9.22478 62.8247 9.22478L13.2308 8.19952L12.9281 7.07174L11.631 5.88537C11.631 5.88537 16.0845 4.93334 16.3872 4.46465C16.6898 3.99596 16.3872 3.76162 16.3872 3.76162L18.5058 3H0Z" fill="#C6541E"/>
<path opacity="0.1" d="M199.76 5.92931L219.044 5.00658V3H195.479C194.052 3 189.729 3.95203 189.729 3.95203C189.729 3.95203 200.797 5.88537 199.76 5.92931Z" fill="#C6541E"/>
<path opacity="0.1" d="M202.656 21.7035C202.786 21.8206 203.521 22.0257 204.429 22.2747H219V16.7383L202.959 19.5651C202.959 19.5651 202.397 21.4252 202.656 21.7035Z" fill="#C6541E"/>
<path opacity="0.1" d="M38.352 100.209C38.352 100.209 51.8855 99.6379 49.8965 99.3743C47.8644 99.1106 43.5406 98.9495 41.249 98.5687C38.9574 98.1879 27.9749 98.4662 25.986 98.0561C23.9538 97.646 20.4948 97.1919 18.7653 96.7379C17.0357 96.2839 14.4415 96.1227 10.9824 95.4929C7.5234 94.8631 6.35597 94.6581 6.35597 94.1308C6.35597 93.6035 7.5234 91.3333 7.5234 90.8353C7.5234 90.3374 6.9613 89.2828 6.9613 89.2828C6.9613 89.2828 17.0357 89.8687 20.7974 89.8833C24.5591 89.898 28.8829 90.8207 28.8829 90.8207L33.5094 89.8833C33.5094 89.8833 27.4561 89.1803 25.4239 88.6969C23.3917 88.2136 20.7974 88.6969 20.7974 88.6969C20.7974 88.6969 14.4415 88.1111 12.4525 87.2177C10.4636 86.3242 11.0257 86.2656 11.0257 86.2656C11.0257 86.2656 11.0257 86.2656 7.00454 85.3868C2.98342 84.508 6.44245 84.1126 7.30721 83.7318C8.17196 83.351 10.4636 82.4575 10.4636 82.4575L12.4958 82.2671C12.4958 82.2671 16.0845 81.901 18.8517 82.4429C21.619 82.9848 24.905 82.4575 26.0725 82.5601C27.2399 82.6626 32.1258 83.7318 32.1258 83.7318H44.2324C44.2324 83.7318 38.7412 83.0434 37.0116 82.5601C35.2821 82.0767 20.5812 81.4909 15.6954 80.905C10.8095 80.3191 15.3927 80.0262 15.3927 80.0262L16.5601 78.752C16.5601 78.752 10.5068 77.2873 10.2041 76.9211H0V81.2565L15.998 81.901H0V90.2348L5.18855 92.3293L0 93.4131V97.0601L20.538 98.2318L0 99.2278V101H31.0448C34.1147 100.605 38.352 100.209 38.352 100.209Z" fill="#C6541E"/>
</g>
<defs>
<filter id="filter0_d" x="0" y="0" width="219" height="100" filterUnits="userSpaceOnUse" color-interpolation-filters="sRGB">
<feFlood flood-opacity="0" result="BackgroundImageFix"/>
<feColorMatrix in="SourceAlpha" type="matrix" values="0 0 0 0 0 0 0 0 0 0 0 0 0 0 0 0 0 0 127 0" result="hardAlpha"/>
<feOffset dy="2"/>
<feComposite in2="hardAlpha" operator="out"/>
<feColorMatrix type="matrix" values="0 0 0 0 0.568627 0 0 0 0 0.290196 0 0 0 0 0.14902 0 0 0 0.5 0"/>
<feBlend mode="normal" in2="BackgroundImageFix" result="effect1_dropShadow"/>
<feBlend mode="normal" in="SourceGraphic" in2="effect1_dropShadow" result="shape"/>
</filter>
<clipPath id="clip0">
<rect width="219" height="98" fill="white" transform="translate(0 3)"/>
</clipPath>
</defs>
</svg>
